<?xml version="1.0" encoding="UTF-8"?>
<svg xmlns="http://www.w3.org/2000/svg" xmlns:xlink="http://www.w3.org/1999/xlink" width="37.5pt" height="37.499999pt" viewBox="0 0 37.5 37.499999" version="1.2">
<defs>
<clipPath id="clip1">
  <path d="M 0 0 L 37.007812 0 L 37.007812 37.007812 L 0 37.007812 Z M 0 0 "/>
</clipPath>
<clipPath id="clip2">
  <path d="M 3.75 2.121094 L 35.25 2.121094 L 35.25 35.121094 L 3.75 35.121094 Z M 3.75 2.121094 "/>
</clipPath>
</defs>
<g id="surface1">
<g clip-path="url(#clip1)" clip-rule="nonzero">
<path style=" stroke:none;fill-rule:nonzero;fill:rgb(100%,100%,100%);fill-opacity:1;" d="M 0 0 L 37.5 0 L 37.5 45 L 0 45 Z M 0 0 "/>
<path style=" stroke:none;fill-rule:nonzero;fill:rgb(100%,100%,100%);fill-opacity:1;" d="M 0 0 L 37.5 0 L 37.5 37.5 L 0 37.5 Z M 0 0 "/>
<path style=" stroke:none;fill-rule:nonzero;fill:rgb(100%,100%,100%);fill-opacity:1;" d="M 0 0 L 37.5 0 L 37.5 37.5 L 0 37.5 Z M 0 0 "/>
</g>
<g clip-path="url(#clip2)" clip-rule="nonzero">
<path style=" stroke:none;fill-rule:nonzero;fill:rgb(9.799194%,9.799194%,43.919373%);fill-opacity:1;" d="M 33.972656 2.121094 L 32.566406 3.097656 C 25.203125 8.222656 17.664062 18.828125 13.902344 27.449219 C 13.320312 26.625 13.144531 26.351562 12.582031 25.429688 C 10.28125 22.269531 7.367188 19.558594 5.980469 18.558594 L 3.820312 19.476562 L 3.886719 19.605469 C 5.382812 21.269531 8 24.957031 11.949219 33.082031 C 12.191406 33.433594 12.449219 33.777344 12.742188 34.101562 C 13.515625 34.941406 14.304688 35.117188 14.835938 35.117188 C 16.34375 35.117188 17.230469 33.910156 17.84375 32.492188 C 21.796875 17.566406 31.140625 7.292969 35.179688 3.773438 Z M 33.972656 2.121094 "/>
</g>
<path style=" stroke:none;fill-rule:nonzero;fill:rgb(81.568909%,1.959229%,2.349854%);fill-opacity:1;" d="M 12.890625 6.753906 C 12.503906 6.753906 12.121094 6.792969 11.746094 6.878906 C 11.367188 6.960938 11 7.082031 10.644531 7.246094 C 10.289062 7.40625 9.953125 7.605469 9.632812 7.84375 C 9.3125 8.078125 9.015625 8.347656 8.746094 8.648438 C 8.472656 8.945312 8.230469 9.273438 8.015625 9.625 C 7.800781 9.980469 7.621094 10.351562 7.472656 10.742188 C 7.328125 11.136719 7.214844 11.539062 7.140625 11.957031 C 7.066406 12.375 7.027344 12.792969 7.027344 13.21875 C 7.027344 13.640625 7.066406 14.0625 7.140625 14.480469 C 7.214844 14.894531 7.328125 15.300781 7.472656 15.691406 C 7.621094 16.085938 7.800781 16.457031 8.015625 16.808594 C 8.230469 17.164062 8.472656 17.488281 8.746094 17.789062 C 9.015625 18.089844 9.3125 18.359375 9.632812 18.59375 C 9.953125 18.828125 10.289062 19.027344 10.644531 19.191406 C 11 19.351562 11.367188 19.476562 11.746094 19.558594 C 12.121094 19.640625 12.503906 19.683594 12.890625 19.683594 C 13.273438 19.683594 13.65625 19.640625 14.03125 19.558594 C 14.410156 19.476562 14.777344 19.351562 15.132812 19.191406 C 15.488281 19.027344 15.824219 18.828125 16.144531 18.59375 C 16.464844 18.359375 16.761719 18.089844 17.035156 17.789062 C 17.304688 17.488281 17.546875 17.164062 17.761719 16.808594 C 17.976562 16.457031 18.15625 16.085938 18.304688 15.691406 C 18.449219 15.300781 18.5625 14.894531 18.636719 14.480469 C 18.710938 14.0625 18.75 13.640625 18.75 13.21875 C 18.75 12.792969 18.710938 12.375 18.636719 11.957031 C 18.5625 11.539062 18.449219 11.136719 18.304688 10.742188 C 18.15625 10.351562 17.976562 9.980469 17.761719 9.625 C 17.546875 9.273438 17.304688 8.945312 17.035156 8.648438 C 16.761719 8.347656 16.464844 8.078125 16.144531 7.84375 C 15.824219 7.605469 15.488281 7.40625 15.132812 7.246094 C 14.777344 7.082031 14.410156 6.960938 14.03125 6.878906 C 13.65625 6.792969 13.273438 6.753906 12.890625 6.753906 Z M 12.890625 6.753906 "/>
</g>
</svg>
